<?xml version="1.0" encoding="UTF-8"?>
<!DOCTYPE svg  PUBLIC '-//W3C//DTD SVG 1.1//EN'  'http://www.w3.org/Graphics/SVG/1.1/DTD/svg11.dtd'>
<svg enable-background="new 0 0 50.5 31.2" version="1.1" viewBox="0 0 50.5 31.2" xml:space="preserve" xmlns="http://www.w3.org/2000/svg" xmlns:xlink="http://www.w3.org/1999/xlink">
<symbol id="as" viewBox="-0.033 -4.475 4.572 4.485">
		<path d="m4.25-1.05c0.467-0.934 0.367-1.684-0.3-2.25-0.767-0.667-1.534-1.05-2.3-1.15-0.767-0.1-1.283 0.1-1.55 0.6-0.267 0.467-0.133 1.167 0.4 2.1 0.5 0.933 1.033 1.483 1.6 1.65 0.967 0.3 1.683-0.017 2.15-0.95z" clip-rule="evenodd" fill="#FFD670" fill-rule="evenodd"/>
</symbol>
<symbol id="at" viewBox="-0.01 -10.103 10.316 10.103">
		<path d="m3.65-0.8c1.833 0.667 3.35 0.917 4.55 0.75 1.333-0.2 2.033-1.1 2.1-2.7 0.034-0.867-0.083-1.983-0.35-3.35-0.033-0.667-0.883-1.483-2.55-2.45-1.6-1-2.95-1.517-4.05-1.55-1.067-0.033-1.917 0.267-2.55 0.9-0.6 0.633-0.867 1.5-0.8 2.6 0.1 1.6 0.567 2.95 1.4 4.05 0.667 0.9 1.417 1.483 2.25 1.75z" clip-rule="evenodd" fill="#FFE39E" fill-rule="evenodd"/>
</symbol>
<symbol id="au" viewBox="0 -19.348 33.831 19.348">
		<path d="m33.45-2.35l-0.15 2.35c0.633-1.567 0.7-3.383 0.2-5.45-0.467-1.9-1.3-3.65-2.5-5.25-1.9-2.466-4.367-4.367-7.4-5.7-3.3-1.434-7.733-2.383-13.3-2.85-4.333-0.367-7.767 0.3-10.3 2 1.367-0.733 3.033-1.183 5-1.35 1.867-0.167 4.25-0.05 7.15 0.35 2.3 0.3 4.367 0.683 6.2 1.15 1.3 0.3 2.617 0.817 3.95 1.55 0.7 0.4 1.583 0.933 2.65 1.6 0.966 0.534 1.55 0.883 1.75 1.05 0.066 0.2 0.15 0.433 0.25 0.7 0.2 0.534 0.417 0.934 0.65 1.2 0.167 0.2 0.683 0.667 1.55 1.4 0.867 0.767 1.383 1.25 1.55 1.45s0.683 0.816 1.55 1.85c0.833 1.2 1.233 2.517 1.2 3.95z" clip-rule="evenodd" fill-rule="evenodd"/>
</symbol>
<symbol id="av" viewBox="-0.003 -15.826 16.66 15.836">
		<path d="m9.85 0c3.367-0.3 5.483-1.717 6.35-4.25 0.733-2.067 0.583-3.967-0.45-5.7-1.3-2.2-2.95-3.816-4.95-4.85-2.566-1.333-5.267-1.367-8.1-0.1-1.333 0.6-2.184 1.867-2.55 3.8-0.467 2.4 0.133 5 1.8 7.8 0.6 1 1.917 1.85 3.95 2.55 1.733 0.567 3.05 0.817 3.95 0.75z" clip-rule="evenodd" fill="#FFEBBA" fill-rule="evenodd"/>
</symbol>
<symbol id="aw" viewBox="0 -1.464 4.75 1.464">
		<path d="m2.55-0.75l-1.8 0.2c-0.267 0.033-0.483 0.15-0.65 0.35l-0.1 0.2c0.133-0.133 0.267-0.183 0.4-0.15 0.434 0.1 0.85 0.1 1.25 0 0.8-0.2 1.283-0.367 1.45-0.5 0.333-0.267 0.883-0.483 1.65-0.65-0.267-0.2-0.6-0.217-1-0.05-0.333 0.333-0.733 0.533-1.2 0.6z" clip-rule="evenodd" fill="#FFD670" fill-rule="evenodd"/>
</symbol>
<symbol id="ax" viewBox="0 -2.4 7.1 2.4">
		<path d="m3.8-1.9c-0.267 0.033-0.55 0.133-0.85 0.3-0.533 0.367-1.117 0.55-1.75 0.55-0.6 0-0.983 0.1-1.15 0.3-0.1 0.167-0.05 0.417 0.15 0.75 0.333-0.133 0.566-0.15 0.7-0.05h0.7c0.066 0 0.1-0.1 0.1-0.3 0-0.167 0.167-0.267 0.5-0.3 0.4-0.033 0.65-0.067 0.75-0.1 0.067-0.033 0.267-0.15 0.6-0.35 0.267-0.133 0.45-0.25 0.55-0.35 0.067-0.067 0.3-0.117 0.7-0.15 0.633-0.1 1.4-0.367 2.3-0.8-1.067 0.4-1.867 0.583-2.4 0.55s-0.833-0.05-0.9-0.05z" clip-rule="evenodd" fill="#FFE39E" fill-rule="evenodd"/>
</symbol>
<symbol id="ay" viewBox="0 -3.5 7.25 3.5">
		<path d="m6.55-2.2c0.333-0.133 0.55-0.383 0.65-0.75 0.066-0.3 0.066-0.483 0-0.55 0 0.1-0.15 0.2-0.45 0.3-0.4 0.133-0.95 0.2-1.65 0.2-0.667 0-1.283 0.083-1.85 0.25-0.633 0.233-1.133 0.417-1.5 0.55-0.7 0.1-1.183 0.183-1.45 0.25-0.4 0.133-0.4 0.417 0 0.85h-0.1l1.1 0.3 1.95 0.8c0.2 0 0.417-0.067 0.65-0.2 0.233-0.1 0.333-0.216 0.3-0.35 0-0.3-0.017-0.534-0.05-0.7 0-0.033 0.15-0.033 0.45 0 0.467 0.033 0.933-0.117 1.4-0.45l0.15-0.2c0.133-0.167 0.267-0.267 0.4-0.3z" clip-rule="evenodd" fill="#FFE5A3" fill-rule="evenodd"/>
</symbol>
<symbol id="az" viewBox="0 -22.658 35.206 22.658">
		<path d="m30.55-8.15c0.967 0.733 1.633 1.45 2 2.15 0.3 0.5 0.45 0.5 0.45 0 0-0.767 0.067-1.2 0.2-1.3 0.233-0.167 0.466-0.034 0.7 0.4 0.267 0.467 0.4 1.083 0.4 1.85 0 0.533-0.25 1.316-0.75 2.35-0.533 1-1.133 1.9-1.8 2.7 2.4-1.333 3.55-3.5 3.45-6.5-0.1-2.633-1.034-5.133-2.8-7.5-1.9-2.467-4.367-4.367-7.4-5.7-3.3-1.433-7.733-2.383-13.3-2.85-5.267-0.467-9.167 0.583-11.7 3.15 2.6-1.233 5.8-1.7 9.6-1.4 2.566 0.2 4.683 0.7 6.35 1.5 0.9 0.433 1.867 0.983 2.9 1.65 0.867 0.333 1.933 0.867 3.2 1.6 0.267 0.167 0.867 0.3 1.8 0.4 0.867 0.1 1.383 0.233 1.55 0.4l0.95 1.1c-0.3 0.1-0.567 0.217-0.8 0.35-0.533 0.233-0.7 0.383-0.5 0.45 0.1 0.033 0.3 0.15 0.6 0.35 0.233 0.2 0.567 0.35 1 0.45 0.567 0.167 0.917 0.333 1.05 0.5 0.167 0.133 0.25 0.4 0.25 0.8 0 0.333-0.35 0.583-1.05 0.75l-1.05 0.2 2.25 0.8c0.733 0.233 1.55 0.683 2.45 1.35z" clip-rule="evenodd" fill-rule="evenodd"/>
</symbol>
		<linearGradient id="aj" x1="10.747" x2="28.199" y1="-14.75" y2="-14.75" gradientTransform="matrix(.2361 .7644 -.7644 .2361 10.15 11.95)" gradientUnits="userSpaceOnUse">
		<stop stop-color="#B39345" offset="0"/>
		<stop stop-color="#6E5720" offset="1"/>
	</linearGradient>
	<path d="m35.43 12.23c3.013 0.64 4.64 2.333 4.88 5.08 0.213 2.373-0.521 4.68-2.2 6.92-1.521 1.973-3.493 3.493-5.92 4.56-2.64 1.146-6.187 1.907-10.64 2.28-4.4 0.399-7.6-0.521-9.6-2.76-1.867-2.054-2.32-4.693-1.36-7.921 0.667-2.266 2.467-3.853 5.4-4.759 1.173-0.374 3.707-0.787 7.6-1.24 0.88-0.08 2.72-0.653 5.52-1.72 2.027-0.746 4.132-0.893 6.32-0.44z" clip-rule="evenodd" fill="url(#aj)" fill-rule="evenodd"/>
		<linearGradient id="ak" x1="7.8071" x2="12.386" y1="-17.502" y2="-17.502" gradientTransform="matrix(.2359 .7644 -.7644 .2359 10.15 11.95)" gradientUnits="userSpaceOnUse">
		<stop stop-color="#997E38" offset="0"/>
		<stop stop-color="#9C7F3A" offset="1"/>
	</linearGradient>
	<path d="m26.63 14.91c0.293 0.107 0.693 0.253 1.2 0.44 0.453 0.133 0.946 0.2 1.479 0.2 0.56 0 1 0.053 1.319 0.16 0.241 0.08 0.36 0.16 0.36 0.24-0.532-0.187-1.373-0.173-2.52 0.04-0.587 0.107-1.054 0.081-1.4-0.08l-0.319-0.24c-0.667 0.267-1.134 0.227-1.4-0.12-0.133-0.187-0.4-0.307-0.8-0.36-0.907-0.08-1.72-0.2-2.44-0.36-0.405-0.088-0.872-0.115-1.4-0.08 0.78-0.095 1.74-0.215 2.879-0.36 0.641-0.08 1.267-0.2 1.88-0.36-0.32 0.347-0.32 0.573 0 0.68 0.215 0.054 0.601 0.12 1.162 0.2z" clip-rule="evenodd" fill="url(#ak)" fill-rule="evenodd"/>
		<use transform="matrix(.8 0 0 -.8 12.2 13.05)" y="-22.658" width="35.206" height="22.658" enable-background="new" opacity=".1211" xlink:href="#az"/>
		<use transform="matrix(.8 0 0 -.8 25.25 13.15)" y="-3.5" width="7.25" height="3.5" enable-background="new" opacity=".0703" xlink:href="#ay"/>
		<use transform="matrix(.8 0 0 -.8 25.35 14.05)" y="-2.4" width="7.1" height="2.4" enable-background="new" opacity=".1016" xlink:href="#ax"/>
		<use transform="matrix(.8 0 0 -.8 25.3 14.5)" y="-1.464" width="4.75" height="1.464" enable-background="new" opacity=".3008" xlink:href="#aw"/>
		<use transform="matrix(.8 0 0 -.8 13.35 15.7)" y="-19.348" width="33.831" height="19.348" enable-background="new" opacity=".1914" xlink:href="#au"/>
		<linearGradient id="al" x1="16.828" x2="18.37" y1="-10.054" y2="-10.054" gradientTransform="matrix(.2334 .7652 -.7652 .2334 10.15 11.95)" gradientUnits="userSpaceOnUse">
		<stop stop-color="#856629" offset="0"/>
		<stop stop-color="#96782D" offset=".9882"/>
	</linearGradient>
	<path d="m21.87 22.23c1.067 0.187 1.347 0.546 0.84 1.08-0.534 0.56-1.014 0.706-1.44 0.439-0.32-0.187-0.413-0.493-0.28-0.92 0.16-0.452 0.453-0.652 0.88-0.599z" clip-rule="evenodd" fill="url(#al)" fill-rule="evenodd"/>
		<linearGradient id="am" x1="9.5825" x2="10.128" y1="-7.3936" y2="-7.3936" gradientTransform="matrix(.2198 .7692 -.7692 .2198 10.15 11.95)" gradientUnits="userSpaceOnUse">
		<stop stop-color="#7A5E26" offset="0"/>
		<stop stop-color="#96782D" offset=".9882"/>
	</linearGradient>
	<path d="m18.03 17.59c0.427-0.026 0.533 0.08 0.32 0.32-0.213 0.267-0.426 0.36-0.64 0.28-0.187-0.054-0.227-0.16-0.12-0.32 0.08-0.16 0.226-0.253 0.44-0.28z" clip-rule="evenodd" fill="url(#am)" fill-rule="evenodd"/>
		<linearGradient id="an" x1="14.923" x2="16.101" y1="-15.044" y2="-15.044" gradientTransform="matrix(.2376 .7639 -.7639 .2376 10.15 11.95)" gradientUnits="userSpaceOnUse">
		<stop stop-color="#8F6E2C" offset="0"/>
		<stop stop-color="#9E7F2F" offset=".9882"/>
	</linearGradient>
	<path d="m25.35 19.51c0.693-0.106 0.92 0.094 0.68 0.601-0.267 0.533-0.64 0.746-1.12 0.64-0.427-0.106-0.573-0.333-0.44-0.68 0.133-0.321 0.426-0.508 0.88-0.561z" clip-rule="evenodd" fill="url(#an)" fill-rule="evenodd"/>
		<linearGradient id="ao" x1="20.671" x2="21.43" y1="-.7305" y2="-.7305" gradientTransform="matrix(.2371 .764 -.764 .2371 10.15 11.95)" gradientUnits="userSpaceOnUse">
		<stop stop-color="#7A5E26" offset="0"/>
		<stop stop-color="#96782D" offset=".9882"/>
	</linearGradient>
	<path d="m15.83 27.51c0.586 0.133 0.707 0.307 0.359 0.52-0.373 0.214-0.707 0.214-1 0-0.266-0.187-0.293-0.332-0.08-0.439 0.187-0.108 0.428-0.134 0.721-0.081z" clip-rule="evenodd" fill="url(#ao)" fill-rule="evenodd"/>
		<linearGradient id="ap" x1="22.357" x2="23.33" y1="-14.24" y2="-14.24" gradientTransform="matrix(.2468 .761 -.761 .2468 10.15 11.951)" gradientUnits="userSpaceOnUse">
		<stop stop-color="#7A5E26" offset="0"/>
		<stop stop-color="#96782D" offset=".9882"/>
	</linearGradient>
	<path d="m26.63 25.229c0.72-0.079 0.92 0.107 0.6 0.561-0.319 0.427-0.693 0.6-1.12 0.521-0.32-0.081-0.373-0.281-0.16-0.601 0.187-0.294 0.413-0.453 0.68-0.481z" clip-rule="evenodd" fill="url(#ap)" fill-rule="evenodd"/>
		<linearGradient id="aq" x1="12.678" x2="13.303" y1="-21.669" y2="-21.669" gradientTransform="matrix(.224 .768 -.768 .224 10.149 11.95)" gradientUnits="userSpaceOnUse">
		<stop stop-color="#A17C31" offset="0"/>
		<stop stop-color="#A18130" offset=".9882"/>
	</linearGradient>
	<path d="m29.75 16.71c0.399-0.026 0.533 0.094 0.399 0.36-0.16 0.267-0.387 0.36-0.68 0.28-0.267-0.054-0.36-0.174-0.28-0.36 0.081-0.16 0.267-0.253 0.561-0.28z" clip-rule="evenodd" fill="url(#aq)" fill-rule="evenodd"/>
		<linearGradient id="ar" x1="17.092" x2="17.986" y1="-24.666" y2="-24.666" gradientTransform="matrix(.2463 .7611 -.7611 .2463 10.149 11.95)" gradientUnits="userSpaceOnUse">
		<stop stop-color="#91702D" offset="0"/>
		<stop stop-color="#A38332" offset=".9882"/>
	</linearGradient>
	<path d="m32.949 18.75c0.693-0.293 0.987-0.213 0.88 0.24-0.133 0.479-0.413 0.706-0.84 0.68-0.347-0.026-0.493-0.174-0.439-0.439 0.053-0.214 0.186-0.375 0.399-0.481z" clip-rule="evenodd" fill="url(#ar)" fill-rule="evenodd"/>
		<linearGradient id="aa" x1="19.289" x2="20.285" y1="-19.65" y2="-19.65" gradientTransform="matrix(.2409 .7629 -.7629 .2409 10.149 11.95)" gradientUnits="userSpaceOnUse">
		<stop stop-color="#856629" offset="0"/>
		<stop stop-color="#96782D" offset=".9882"/>
	</linearGradient>
	<path d="m29.949 21.71c0.721-0.08 0.961 0.094 0.721 0.521-0.268 0.426-0.667 0.613-1.2 0.56-0.48-0.08-0.601-0.28-0.36-0.601 0.213-0.294 0.494-0.454 0.839-0.48z" clip-rule="evenodd" fill="url(#aa)" fill-rule="evenodd"/>
		<linearGradient id="ab" x1="20.586" x2="21.108" y1="-23.537" y2="-23.537" gradientTransform="matrix(.2299 .7662 -.7662 .2299 10.15 11.95)" gradientUnits="userSpaceOnUse">
		<stop stop-color="#7A5E26" offset="0"/>
		<stop stop-color="#96782D" offset=".9882"/>
	</linearGradient>
	<path d="m32.989 22.189c0.4 0 0.534 0.107 0.4 0.32-0.133 0.214-0.347 0.294-0.64 0.24-0.24-0.054-0.32-0.16-0.24-0.32 0.107-0.159 0.267-0.24 0.48-0.24z" clip-rule="evenodd" fill="url(#ab)" fill-rule="evenodd"/>
		<linearGradient id="ac" x1="11.342" x2="12.125" y1="-28.876" y2="-28.876" gradientTransform="matrix(.2299 .7662 -.7662 .2299 10.15 11.95)" gradientUnits="userSpaceOnUse">
		<stop stop-color="#AB8435" offset="0"/>
		<stop stop-color="#997B2E" offset=".9882"/>
	</linearGradient>
	<path d="m34.829 13.87c0.454-0.08 0.628 0.054 0.521 0.4-0.107 0.347-0.293 0.48-0.561 0.4-0.213-0.08-0.306-0.227-0.279-0.439 0.026-0.214 0.133-0.335 0.319-0.361z" clip-rule="evenodd" fill="url(#ac)" fill-rule="evenodd"/>
		<linearGradient id="ad" x1="14.22" x2="15.343" y1="-30.062" y2="-30.062" gradientTransform="matrix(.2315 .7658 -.7658 .2315 10.15 11.95)" gradientUnits="userSpaceOnUse">
		<stop stop-color="#96742E" offset="0"/>
		<stop stop-color="#A38332" offset=".9882"/>
	</linearGradient>
	<path d="m36.87 15.59c0.399 0.107 0.426 0.387 0.079 0.841-0.347 0.479-0.64 0.6-0.88 0.359-0.213-0.213-0.187-0.493 0.08-0.84 0.267-0.32 0.507-0.44 0.721-0.36z" clip-rule="evenodd" fill="url(#ad)" fill-rule="evenodd"/>
		<linearGradient id="ae" x1="16.174" x2="16.957" y1="-29.13" y2="-29.13" gradientTransform="matrix(.2299 .7662 -.7662 .2299 10.15 11.95)" gradientUnits="userSpaceOnUse">
		<stop stop-color="#96742E" offset="0"/>
		<stop stop-color="#A38332" offset=".9882"/>
	</linearGradient>
	<path d="m36.229 17.511c0.347-0.027 0.493 0.093 0.44 0.359-0.081 0.24-0.254 0.387-0.521 0.44-0.24 0.053-0.32-0.067-0.24-0.36 0.055-0.293 0.161-0.439 0.321-0.439z" clip-rule="evenodd" fill="url(#ae)" fill-rule="evenodd"/>
		<linearGradient id="af" x1="10.781" x2="11.588" y1="-31.505" y2="-31.505" gradientTransform="matrix(.223 .7683 -.7683 .223 10.15 11.95)" gradientUnits="userSpaceOnUse">
		<stop stop-color="#AB8435" offset="0"/>
		<stop stop-color="#997B2E" offset=".9882"/>
	</linearGradient>
	<path d="m36.47 13.11c0.267-0.027 0.467 0.026 0.6 0.16s0.173 0.293 0.12 0.48c-0.054 0.133-0.227 0.067-0.52-0.2-0.268-0.239-0.334-0.386-0.2-0.44z" clip-rule="evenodd" fill="url(#af)" fill-rule="evenodd"/>
		<linearGradient id="ag" x1="9.7842" x2="10.361" y1="-24.206" y2="-24.206" gradientTransform="matrix(.2426 .7623 -.7623 .2426 10.15 11.95)" gradientUnits="userSpaceOnUse">
		<stop stop-color="#AB8435" offset="0"/>
		<stop stop-color="#997B2E" offset=".9882"/>
	</linearGradient>
	<path d="m30.629 13.59c0.16-0.133 0.334-0.2 0.521-0.2 0.16 0.027 0.267 0.08 0.32 0.16s0.04 0.173-0.04 0.28c-0.106 0.107-0.254 0.16-0.44 0.16-0.16 0-0.293-0.053-0.399-0.16-0.081-0.106-0.068-0.186 0.038-0.24z" clip-rule="evenodd" fill="url(#ag)" fill-rule="evenodd"/>
		<linearGradient id="ah" x1="17.88" x2="18.64" y1="2.7178" y2="2.7178" gradientTransform="matrix(.2371 .764 -.764 .2371 10.15 11.95)" gradientUnits="userSpaceOnUse">
		<stop stop-color="#7A5E26" offset="0"/>
		<stop stop-color="#96782D" offset=".9882"/>
	</linearGradient>
	<path d="m12.47 26.189c0.454 0.188 0.547 0.374 0.28 0.561-0.24 0.187-0.467 0.213-0.68 0.08-0.16-0.133-0.2-0.293-0.12-0.48 0.107-0.213 0.28-0.266 0.52-0.161z" clip-rule="evenodd" fill="url(#ah)" fill-rule="evenodd"/>
		<linearGradient id="ai" x1="23.119" x2="23.926" y1="-6.25" y2="-6.25" gradientTransform="matrix(.223 .7683 -.7683 .223 10.15 11.95)" gradientUnits="userSpaceOnUse">
		<stop stop-color="#7A5E26" offset="0"/>
		<stop stop-color="#96782D" offset=".9882"/>
	</linearGradient>
	<path d="m19.87 28.229c0.587-0.079 0.854 0.014 0.8 0.28-0.026 0.24-0.2 0.4-0.52 0.48-0.24 0.026-0.4-0.08-0.48-0.32-0.08-0.266-0.014-0.412 0.2-0.44z" clip-rule="evenodd" fill="url(#ai)" fill-rule="evenodd"/>
		<use transform="matrix(.8 0 0 -.8 10.55 15.7)" x="-0.003" y="-15.826" width="16.66" height="15.836" enable-background="new" opacity=".0703" xlink:href="#av"/>
		<use transform="matrix(.8 0 0 -.8 11.35 16.75)" x="-0.01" y="-10.103" width="10.316" height="10.103" enable-background="new" opacity=".1016" xlink:href="#at"/>
		<use transform="matrix(.8 0 0 -.8 12.7 18.1)" x="-0.033" y="-4.475" width="4.572" height="4.485" enable-background="new" opacity=".3008" xlink:href="#as"/>
</svg>
