<?xml version="1.0" encoding="UTF-8"?>
<svg viewBox="0 0 548.56 511.45" xmlns="http://www.w3.org/2000/svg" xmlns:xlink="http://www.w3.org/1999/xlink">
 <defs>
  <filter id="bz" color-interpolation-filters="sRGB">
   <feGaussianBlur stdDeviation="1.166926"/>
  </filter>
  <filter id="bu" x="-.16472" y="-.15921" width="1.3294" height="1.3184" color-interpolation-filters="sRGB">
   <feGaussianBlur stdDeviation="2.025046"/>
  </filter>
  <filter id="bt" x="-.16472" y="-.15921" width="1.3294" height="1.3184" color-interpolation-filters="sRGB">
   <feGaussianBlur stdDeviation="2.025046"/>
  </filter>
  <filter id="bv" x="-.16472" y="-.15921" width="1.3294" height="1.3184" color-interpolation-filters="sRGB">
   <feGaussianBlur stdDeviation="2.025046"/>
  </filter>
  <filter id="by" x="-.16472" y="-.15921" width="1.3294" height="1.3184" color-interpolation-filters="sRGB">
   <feGaussianBlur stdDeviation="2.025046"/>
  </filter>
  <filter id="bw" x="-.16472" y="-.15921" width="1.3294" height="1.3184" color-interpolation-filters="sRGB">
   <feGaussianBlur stdDeviation="2.025046"/>
  </filter>
  <filter id="bx" x="-.16472" y="-.15921" width="1.3294" height="1.3184" color-interpolation-filters="sRGB">
   <feGaussianBlur stdDeviation="2.025046"/>
  </filter>
  <filter id="ap" x="-.28858" y="-.28615" width="1.5772" height="1.5723" color-interpolation-filters="sRGB">
   <feGaussianBlur stdDeviation="3.604818"/>
  </filter>
  <filter id="ax" color-interpolation-filters="sRGB">
   <feGaussianBlur stdDeviation="0.072875"/>
  </filter>
  <filter id="av" x="-.16224" y="-.10962" width="1.3245" height="1.2192" color-interpolation-filters="sRGB">
   <feGaussianBlur stdDeviation="1.707189"/>
  </filter>
  <filter id="ar" x="-.1087" y="-.1241" width="1.2174" height="1.2482" color-interpolation-filters="sRGB">
   <feGaussianBlur stdDeviation="6.065498"/>
  </filter>
  <filter id="aw" x="-.16224" y="-.10962" width="1.3245" height="1.2192" color-interpolation-filters="sRGB">
   <feGaussianBlur stdDeviation="1.707189"/>
  </filter>
  <filter id="at" x="-.65221" y="-.59635" width="2.3044" height="2.1927" color-interpolation-filters="sRGB">
   <feGaussianBlur stdDeviation="7.800808"/>
  </filter>
  <filter id="as" x="-.12506" y="-.18124" width="1.2501" height="1.3625" color-interpolation-filters="sRGB">
   <feGaussianBlur stdDeviation="10.527287"/>
  </filter>
  <filter id="au" x="-.16224" y="-.10962" width="1.3245" height="1.2192" color-interpolation-filters="sRGB">
   <feGaussianBlur stdDeviation="1.707189"/>
  </filter>
  <filter id="aq" x="-.28858" y="-.28615" width="1.5772" height="1.5723" color-interpolation-filters="sRGB">
   <feGaussianBlur stdDeviation="3.604818"/>
  </filter>
  <filter id="ay" color-interpolation-filters="sRGB">
   <feGaussianBlur stdDeviation="2.468191"/>
  </filter>
  <filter id="bn" x="-.094178" y="-.1289" width="1.1884" height="1.2578" color-interpolation-filters="sRGB">
   <feGaussianBlur stdDeviation="0.71098"/>
  </filter>
  <filter id="bo" color-interpolation-filters="sRGB">
   <feGaussianBlur stdDeviation="1.06762"/>
  </filter>
  <filter id="bs" x="-.16472" y="-.15921" width="1.3294" height="1.3184" color-interpolation-filters="sRGB">
   <feGaussianBlur stdDeviation="2.025046"/>
  </filter>
  <filter id="bp" color-interpolation-filters="sRGB">
   <feGaussianBlur stdDeviation="1.171232"/>
  </filter>
  <filter id="br" x="-.16472" y="-.15921" width="1.3294" height="1.3184" color-interpolation-filters="sRGB">
   <feGaussianBlur stdDeviation="2.025046"/>
  </filter>
  <filter id="bq" color-interpolation-filters="sRGB">
   <feGaussianBlur stdDeviation="1.171232"/>
  </filter>
  <linearGradient id="bi" x1=".59816" x2=".71786" y1=".49048" y2=".74255" xlink:href="#an"/>
  <linearGradient id="bh" x1="-.003636" x2="1.0036" y1=".5" y2=".5" xlink:href="#ao"/>
  <linearGradient id="bg" x1=".27867" x2=".63605" y1="-.11633" y2="1.3234">
   <stop stop-color="#244a22" offset="0"/>
   <stop stop-color="#142f0f" stop-opacity=".937" offset="1"/>
  </linearGradient>
  <linearGradient id="bf" x1="-.13983" x2="1.4887" y1=".052474" y2=".95069">
   <stop stop-color="#244a22" offset="0"/>
   <stop stop-color="#142f0f" stop-opacity=".937" offset="1"/>
  </linearGradient>
  <linearGradient id="bj" x1="-.003636" x2="1.0036" y1=".5" y2=".5">
   <stop stop-color="#244a22" offset="0"/>
   <stop stop-color="#142f0f" stop-opacity=".937" offset="1"/>
  </linearGradient>
  <linearGradient id="bk" x1=".37582" x2=".37582" y2="1.6838">
   <stop stop-color="#e29239" offset="0"/>
   <stop stop-color="#e29239" stop-opacity=".017" offset="1"/>
  </linearGradient>
  <linearGradient id="ao">
   <stop stop-color="#244a22" offset="0"/>
   <stop stop-color="#14190f" stop-opacity=".937" offset="1"/>
  </linearGradient>
  <linearGradient id="an">
   <stop stop-color="#9baf72" offset="0"/>
   <stop stop-color="#224815" offset="1"/>
  </linearGradient>
  <linearGradient id="be" x1="1.4944" x2=".5" y1=".7915" y2=".83183" xlink:href="#an"/>
  <linearGradient id="az" x1=".5" x2=".57788" y1="1" y2=".5">
   <stop stop-color="#830c1b" offset="0"/>
   <stop stop-color="#bc2609" stop-opacity=".004" offset="1"/>
  </linearGradient>
  <linearGradient id="ba" x2=".29115" y1=".91364" y2=".77555">
   <stop stop-color="#ddaddf" offset="0"/>
   <stop stop-color="#bc2609" stop-opacity=".004" offset="1"/>
  </linearGradient>
  <linearGradient id="bd" x1="1.028" x2="-.452" y1=".5" y2=".5">
   <stop stop-color="#244a22" offset="0"/>
   <stop stop-color="#5f9911" offset="1"/>
  </linearGradient>
  <linearGradient id="bc" y2=".78877" xlink:href="#ao"/>
  <linearGradient id="bb" x1="1" x2=".75841" y1=".81077" y2=".71677">
   <stop stop-color="#ddaddf" offset="0"/>
   <stop stop-color="#bc2609" stop-opacity=".004" offset="1"/>
  </linearGradient>
  <radialGradient id="bl" cx="321.23" cy="469.5" r="9.2414" gradientTransform="matrix(2.9198 -.3316 .27561 1.7724 -746.09 -256.13)" gradientUnits="userSpaceOnUse">
   <stop stop-color="#338000" offset="0"/>
   <stop stop-color="#338000" stop-opacity="0" offset="1"/>
  </radialGradient>
  <radialGradient id="bm" cx="321.23" cy="469.5" r="9.2414" gradientTransform="matrix(3.9006 .54104 -.26254 1.8928 -808.48 -592.95)" gradientUnits="userSpaceOnUse">
   <stop stop-color="#9db174" offset="0"/>
   <stop stop-color="#9db174" stop-opacity="0" offset="1"/>
  </radialGradient>
 </defs>
 <path d="m234.17 57.602c57.891-20.879 115.07-7.5414 164.66 22.953 33.989 24.599 57.057 49.381 72.852 100.79 9.1321 40.219 13.342 84.25-16.965 137.72-32.519 58.452-75.782 86.488-107.78 98.798-71.225 20.519-137.29 20.359-186.62-15.968-48.852-35.972-72.362-82.711-78.839-126.74-6.3524-43.183 3.9161-82.413 35.927-129.74 37.088-47.004 61.383-63.75 116.76-87.821z" fill="#bc2609"/>
 <path d="m234.17 57.602c57.891-20.879 115.07-7.5414 164.66 22.953 33.989 24.599 57.057 49.381 72.852 100.79 9.1321 40.219 13.342 84.25-16.965 137.72-32.519 58.452-75.782 86.488-107.78 98.798-71.225 20.519-137.29 20.359-186.62-15.968-48.852-35.972-72.362-82.711-78.839-126.74-6.3524-43.183 3.9161-82.413 35.927-129.74 37.088-47.004 61.383-63.75 116.76-87.821z" fill="url(#ba)"/>
 <path d="m234.17 57.602c57.891-20.879 115.07-7.5414 164.66 22.953 33.989 24.599 57.057 49.381 72.852 100.79 9.1321 40.219 13.342 84.25-16.965 137.72-32.519 58.452-75.782 86.488-107.78 98.798-71.225 20.519-137.29 20.359-186.62-15.968-48.852-35.972-72.362-82.711-78.839-126.74-6.3524-43.183 3.9161-82.413 35.927-129.74 37.088-47.004 61.383-63.75 116.76-87.821z" fill="url(#az)"/>
 <path d="m234.17 57.602c57.891-20.879 115.07-7.5414 164.66 22.953 33.989 24.599 57.057 49.381 72.851 100.79 9.1322 40.219 13.342 84.25-16.965 137.72-32.519 58.452-75.782 86.488-107.78 98.798-71.225 20.519-137.29 20.359-186.62-15.968-48.852-35.972-72.362-82.711-78.839-126.74-6.3524-43.183 3.9161-82.413 35.927-129.74 37.088-47.004 61.383-63.75 116.76-87.821z" fill="url(#bb)"/>
 <path d="m413.23 185.23c0 63.626-64.262 115.2-143.53 115.2-79.272 0-143.53-51.579-143.53-115.2 0-63.626 64.262-115.2 143.53-115.2 77.264 0 140.66 49.09 143.44 111.06" fill="#c3150e" filter="url(#as)"/>
 <g transform="matrix(1.3972 0 0 1.4062 -61.323 -408.42)" filter="url(#ar)" opacity=".927">
  <g fill="#fff">
   <g filter="url(#bz)">
    <path d="m268.37 354.51c2.5211 7.3845-1.9642 16.297-10.018 19.906-8.0539 3.6094-16.627 0.54907-19.148-6.8354-2.5211-7.3845 1.9642-16.297 10.018-19.906 7.85-3.518 16.236-0.70734 18.974 6.359" filter="url(#bp)" opacity=".931"/>
    <path d="m219.29 434.11c2.2807 5.5482-1.7769 12.244-9.0629 14.956-7.286 2.7118-15.041 0.41254-17.322-5.1356-2.2807-5.5482 1.7769-12.244 9.0629-14.956 7.1015-2.6431 14.688-0.53143 17.165 4.7777" filter="url(#bo)" opacity=".968"/>
    <path d="m162.53 405.5c2.4224 5.345-1.8872 11.796-9.6258 14.408-7.7386 2.6125-15.976 0.39743-18.398-4.9475-2.4224-5.345 1.8872-11.796 9.6258-14.408 7.5426-2.5463 15.601-0.51196 18.231 4.6028" filter="url(#bq)" opacity=".931"/>
    <path d="m162.28 386.39c1.8973 4.3943-1.4782 9.6978-7.5394 11.846-6.0612 2.1479-12.513 0.32675-14.41-4.0676-1.8973-4.3943 1.4782-9.6978 7.5394-11.846 5.9077-2.0934 12.219-0.4209 14.28 3.7841" filter="url(#br)" opacity=".931"/>
    <path d="m169.09 375.53c1.8973 4.3943-1.4782 9.6978-7.5394 11.846-6.0612 2.1479-12.513 0.32672-14.41-4.0676-1.8973-4.3943 1.4782-9.6978 7.5394-11.846 5.9077-2.0934 12.219-0.4209 14.28 3.7841" filter="url(#bs)" opacity=".931"/>
    <path d="m178.68 365.43c1.6781 3.5396-1.3074 7.8115-6.6683 9.5415-5.3609 1.7301-11.067 0.26318-12.745-3.2764-1.6781-3.5396 1.3074-7.8115 6.6683-9.5415 5.2251-1.6862 10.807-0.33905 12.63 3.048" filter="url(#bt)" opacity=".931"/>
    <path d="m191.56 357.09c1.6781 3.5396-1.3074 7.8114-6.6683 9.5415s-11.067 0.26318-12.745-3.2764c-1.6781-3.5396 1.3074-7.8114 6.6683-9.5415 5.2251-1.6862 10.807-0.33905 12.63 3.048" filter="url(#bw)" opacity=".931"/>
    <path d="m204.7 347.5c1.6781 3.5396-1.3074 7.8115-6.6683 9.5415-5.3609 1.7301-11.067 0.26318-12.745-3.2764-1.6781-3.5396 1.3074-7.8115 6.6683-9.5415 5.2251-1.6862 10.807-0.33902 12.63 3.0481" filter="url(#by)" opacity=".931"/>
    <path d="m236.01 338.41c1.6781 3.5396-1.3074 7.8115-6.6683 9.5415-5.3609 1.7301-11.067 0.26318-12.745-3.2764-1.6781-3.5396 1.3074-7.8115 6.6683-9.5415 5.2251-1.6862 10.807-0.33902 12.63 3.0481" filter="url(#bx)" opacity=".931"/>
    <path d="m246.13 428.47c-0.69141 3.8557-5.6036 5.5971-10.972 3.8895-5.3681-1.7076-9.1594-6.2176-8.468-10.073 0.69141-3.8557 5.6036-5.5971 10.972-3.8895 5.2322 1.6644 8.9921 6.0049 8.5067 9.8204" filter="url(#bv)" opacity=".931"/>
    <path d="m257.95 408.84c1.2276 2.6627-2.223 4.9922-7.7071 5.2032-5.4842 0.211-10.925-1.7765-12.153-4.4391-1.2276-2.6627 2.223-4.9922 7.7071-5.2032 5.3452-0.20566 10.679 1.6799 12.066 4.266" filter="url(#bu)" opacity=".931"/>
   </g>
   <path d="m189.54 441.44c1.6781 3.5396-1.3074 7.8114-6.6683 9.5415s-11.067 0.26318-12.745-3.2764c-1.6781-3.5396 1.3074-7.8114 6.6683-9.5415 5.2251-1.6862 10.807-0.33905 12.63 3.048" filter="url(#ap)" opacity=".931"/>
   <path d="m164.29 431.34c1.6781 3.5396-1.3074 7.8115-6.6683 9.5415-5.3609 1.7301-11.067 0.26318-12.745-3.2764-1.6781-3.5396 1.3074-7.8114 6.6683-9.5415 5.2251-1.6862 10.807-0.33905 12.63 3.048" filter="url(#aq)" opacity=".931"/>
  </g>
 </g>
 <path d="m141.95 222.63l16.936-12.702 11.291-5.6453 22.581-14.113 15.525-2.8227 56.454-29.638 14.284-3.7351-17.107-1.9102 4.4052-10.877 4.0628-8.8813-11.291-5.6453h-4.234l-7.0567 1.4113-31.049 4.234-7.0566 19.759-28.227 23.993-39.517 46.574z" fill="url(#bk)" filter="url(#ay)"/>
 <g fill="#600000">
  <path d="m220.51 196.22c-14.356-4.5621-47.702 17.395-71.582 28.706 18.808-14.197 38.689-37.961 61.823-43.208l9.7588 14.502z" filter="url(#av)" opacity=".628"/>
  <path d="m231.22 186.28c9.5524 1.4544 20.824 21.669 30.377 33.862-5.7498-12.339-8.8914-29.911-20.06-38.77l-10.317 4.9076z" filter="url(#au)" opacity=".628"/>
  <path d="m251.32 178.33c10.553-7.0725 39.39 11.06 59.455 19.359-16.506-12.152-35.116-34.292-53.795-36.27l-5.6597 16.911z" filter="url(#aw)" opacity=".628"/>
 </g>
 <g transform="matrix(1.3972 0 0 1.3972 -480.47 -403.37)">
  <path d="m491.77 303.32c3.1157 26.702 8.6267 60.833 12.309 73.196l9.7474 1.977c3.0856-19.782 8.0883-39.972 13.867-55.714l5.2092-8.9539c-6.292 26.836-12.334 53.548-10.714 76.428 7.3802-10.935 19.948-33.965 27.857-50.209-3.8364 14.877-17.031 40.611-22.857 53.066-1.5248 9.2752 1.0936 9.8184 0 16.428l-5 5.7143-6.4285 5.7143-9.2857 3.5714-5-0.7142-3.9465-0.9669-3.9106-0.4617-0.7143-2.8572c-0.50266-0.56732-2.881-1.9994-18.571 0l-19.286 7.8572-20 10-10 3.5714-5.7143 2.1428-5.7143 7.1429-0.7143 6.4286v-7.8572l5.7143-8.5714c3.7566-2.2342 1.0236-0.16626 25-15l23.571-11.428c6.5791-2.5915 13.705-4.4434 20.714-2.8572-21.309-21.302-49.965-40.756-66.847-63.03 23.05 19.972 40.552 26.31 76.133 55.173l-4.9133-22.143c-1.2919-11.195-3.7076-25.13-3.6581-45.714l3.153-31.934z" fill="#3d6c38" stroke="#112b00" stroke-width=".3"/>
  <path d="m477.19 389.54l24.286 23.214 2.5-30-6.7857-36.786 5.3571 38.929-6.0714-3.9286-3.5714 0.7143 4.6429 22.857-20.357-15z" fill="url(#bc)" filter="url(#ax)"/>
  <path d="m500.76 421.32l-2.5-40.357 16.071-1.0714 1.7857 33.929-15.357 7.5z" fill="url(#bd)"/>
  <path d="m491.83 310.55c-0.89716 20.21-2.8927 43.48 1.0714 69.387 3.057 0.72467 4.5374 0.088867 8.3517 1.6539-5.7218-16.443-7.215-47.55-9.4232-71.041z" fill="url(#be)"/>
  <g transform="matrix(.94519 0 0 .92521 17.786 21.733)">
   <path d="m526.4 386.91c0.39905 3.6043-3.3231 6.974-8.3137 7.5264-4.9905 0.55246-9.3596-1.9215-9.7586-5.5258-0.39902-3.6043 3.3232-6.974 8.3137-7.5264 4.9348-0.54626 9.2734 1.8677 9.7461 5.4226" fill="#9db174"/>
   <path d="m525.36 386.8c0.36212 3.2153-3.0164 6.2212-7.5462 6.714-4.5297 0.49283-8.4955-1.7141-8.8576-4.9294-0.36218-3.2153 3.0164-6.2212 7.5462-6.714 4.4791-0.48734 8.4172 1.6661 8.8462 4.8372" fill="#89945a"/>
   <path d="m521.79 386.74c0.33502 2.3261-2.0785 4.5773-5.3907 5.0284-3.3122 0.45102-6.2688-1.069-6.6038-3.395-0.33502-2.326 2.0785-4.5773 5.3907-5.0284 3.2283-0.43958 6.1358 0.99432 6.5781 3.2442" fill="url(#bl)" filter="url(#bn)"/>
   <path d="m519.45 387.07c0.21277 1.2338-1.3367 2.4261-3.4609 2.663-2.1242 0.23694-4.0186-0.57114-4.2314-1.8049s1.3367-2.4261 3.4609-2.663c1.9344-0.21579 3.7118 0.43652 4.1508 1.5234" fill="url(#bm)"/>
  </g>
  <path d="m532.27 314.64c-7.1186 33.565-22.721 73.095-9.9288 92.663-4.1849-7.5642-7.4074-16.028-6.9496-27.933 4.9502-27.935 11.006-45.468 16.878-64.731z" fill="url(#bf)"/>
  <path d="m428.09 354.89c25.933 24.274 46.265 31.211 70.276 59.827-6.8138-2.2266-5.6352-5.3908-17.532-14.821-4.6453-3.2528-40.054-31.37-52.743-45.005z" fill="url(#bg)"/>
  <path d="m433.97 434.18c20.976-8.4982 44.393-21.871 59.643-18.929-5.7595-0.78332-11.944-0.97913-19.752 1.0715-17.631 6.6185-28.171 12.147-39.891 17.857z" fill="url(#bh)"/>
  <path d="m547.9 345.43c-8.3281 16.293-16.07 32.977-25.714 48.393-0.5611 3.6094-0.23383 2.9063-1.25 3.7857l-0.1785 2.6428 2.1428 7.5-2.8572-12.857-2.5-7.5-1.7856-3.9286-0.7144-6.7857-1.4285 6.4286-0.3571 6.7857-1.0715 7.8571-4.6429 8.2143-2.8571 8.5714-1.4286 4.6429c-0.207-6.3737-6.8324-7.5621-12.143-7.8571l-3.5714 1.4285-0.3571 2.5-0.3571 0.7143-6.4286 0.3572c-2.826-0.34992-10.111 1.9743-16.25 4.4642l-11.964 5.1786-24.643 13.214 29.107-13.393 13.393-5.5357c7.381-1.8101 14.762-4.0092 22.143-2.1428l8.2143 3.5714 5-0.7143c6.7268 0.23938 10.705-5.019 15.714-8.2143l0.7143-11.071 4.4642-11.429c8.7793-14.94 14.516-29.881 21.607-44.821z" fill="url(#bi)"/>
  <path d="m426.65 436.42c23.991-10.679 50.772-27.484 68.214-23.787-6.5872-0.98438-13.66-1.2304-22.59 1.3464-20.165 8.3172-32.22 15.265-45.624 22.44z" fill="url(#bj)"/>
 </g>
 <path d="m347.32 223.49c5.2491 14.973-4.0895 33.044-20.858 40.363-16.769 7.3185-34.618 1.1133-39.867-13.86-5.2491-14.973 4.0895-33.044 20.858-40.363 16.344-7.1332 33.805-1.4342 39.506 12.894" fill="#fff" filter="url(#at)" opacity=".893"/>
</svg>
