<?xml version="1.0" standalone="no"?>
<!DOCTYPE svg PUBLIC "-//W3C//DTD SVG 20010904//EN"
 "http://www.w3.org/TR/2001/REC-SVG-20010904/DTD/svg10.dtd">
<svg version="1.0" xmlns="http://www.w3.org/2000/svg"
 width="977.000000pt" height="977.000000pt" viewBox="0 0 977.000000 977.000000"
 preserveAspectRatio="xMidYMid meet">
<metadata>
Created by potrace 1.14, written by Peter Selinger 2001-2017
</metadata>
<g transform="translate(0.000000,977.000000) scale(0.100000,-0.100000)"
fill="#000000" stroke="none">
<path d="M4398 7405 c-2 -2 -64 -6 -138 -10 -165 -8 -310 -18 -425 -29 -22 -2
-76 -7 -120 -11 -44 -3 -87 -8 -95 -10 -8 -2 -44 -7 -80 -10 -36 -4 -74 -9
-85 -11 -11 -2 -43 -7 -71 -9 -28 -3 -62 -8 -75 -11 -13 -2 -42 -7 -64 -10
-22 -3 -76 -12 -120 -20 -44 -7 -91 -16 -105 -18 -14 -3 -25 -5 -25 -6 0 -1
-9 -3 -20 -4 -19 -2 -62 -10 -115 -21 -14 -3 -40 -8 -59 -11 -19 -3 -45 -10
-59 -15 -14 -5 -27 -7 -30 -4 -3 2 -11 0 -19 -6 -7 -6 -13 -9 -13 -6 0 2 -66
-13 -147 -35 -82 -21 -158 -41 -170 -43 -12 -3 -33 -9 -45 -14 -13 -5 -25 -9
-28 -9 -3 0 -12 -3 -20 -6 -8 -2 -59 -19 -112 -36 -54 -17 -101 -32 -105 -32
-5 -1 -38 -14 -75 -30 -37 -15 -74 -28 -82 -28 -9 0 -16 -4 -16 -8 0 -5 -6 -9
-12 -9 -7 0 -38 -12 -68 -26 -30 -13 -80 -35 -110 -48 -30 -12 -59 -26 -65
-30 -5 -4 -48 -27 -95 -51 -127 -66 -265 -151 -325 -200 -5 -4 -35 -27 -65
-50 -66 -51 -224 -207 -265 -263 -17 -22 -32 -42 -36 -45 -7 -7 -99 -159 -99
-165 0 -3 -9 -24 -19 -48 -29 -62 -58 -153 -72 -227 -13 -74 -20 -320 -8 -335
8 -11 9 -16 9 -40 0 -11 11 -15 38 -16 l37 -1 -30 -13 c-16 -7 -46 -15 -65
-18 -19 -3 -105 -22 -190 -42 -85 -20 -159 -37 -165 -39 -5 -1 -70 -17 -143
-36 l-133 -35 6 -135 c9 -196 16 -284 31 -365 3 -16 7 -41 10 -55 2 -14 5 -34
7 -45 11 -66 72 -241 87 -250 5 -3 48 10 97 29 101 40 119 45 116 31 -14 -86
-18 -208 -9 -285 7 -54 44 -190 55 -200 3 -3 14 -21 24 -41 33 -64 124 -148
180 -166 19 -6 19 -14 1 -133 -2 -19 -7 -51 -9 -70 -3 -19 -8 -55 -11 -80 -21
-154 -25 -474 -7 -587 17 -109 26 -142 64 -220 37 -75 80 -124 135 -152 59
-31 64 -32 304 -46 58 -3 139 -8 181 -11 42 -2 125 -7 185 -9 60 -3 150 -7
199 -10 219 -11 1015 -38 1073 -36 6 0 24 0 40 -1 107 -4 1954 0 2142 5 310 9
529 15 730 22 91 3 226 8 300 10 74 3 182 7 240 9 58 3 164 8 235 11 72 3 175
7 230 10 55 3 156 7 225 11 69 3 159 7 200 9 41 2 131 7 200 10 69 3 163 8
210 11 47 2 130 6 185 9 55 2 100 5 100 5 0 2 30 3 230 14 185 10 296 16 390
21 50 3 135 8 190 10 55 2 120 7 145 10 158 21 258 151 286 375 17 128 1 436
-32 650 -3 19 -7 53 -9 75 -6 60 -14 117 -18 140 -3 11 -8 52 -11 90 -4 39 -8
78 -9 88 -1 13 12 24 51 41 29 12 70 40 92 61 34 33 79 113 86 154 1 7 8 35
14 61 13 55 17 214 6 285 -4 28 -9 61 -10 75 -3 21 -10 50 -30 130 -10 37 -39
119 -57 157 -10 24 -19 47 -19 53 0 5 -4 10 -9 10 -5 0 -11 10 -15 23 -3 12
-21 46 -41 75 -19 30 -35 57 -35 62 0 4 21 3 48 -2 26 -5 58 -10 72 -12 14 -2
43 -7 65 -10 22 -4 72 -11 110 -17 39 -6 81 -12 95 -15 76 -12 169 -18 277
-19 104 0 125 3 140 18 14 13 15 21 7 35 -17 27 -113 97 -176 129 -32 15 -58
31 -58 36 0 4 -4 7 -9 7 -5 0 -79 34 -164 75 -86 41 -173 81 -194 90 -86 36
-133 59 -128 63 3 3 35 6 72 8 91 4 151 13 158 25 6 9 -25 24 -68 33 -12 3
-33 8 -47 11 -14 3 -38 8 -55 10 -16 3 -41 7 -55 10 -24 5 -87 14 -141 19 -14
2 -30 5 -35 8 -5 2 -25 5 -45 7 -19 1 -44 4 -55 6 -10 2 -24 4 -31 4 -8 1 -7
17 4 58 16 62 22 209 11 285 -34 238 -215 478 -511 676 -119 80 -314 182 -477
248 -64 26 -216 83 -235 88 -5 2 -19 6 -30 10 -38 15 -70 25 -160 51 -49 15
-101 31 -115 35 -14 5 -43 13 -65 17 -47 8 -46 8 -65 16 -8 3 -26 8 -40 11
-24 5 -154 35 -175 40 -5 2 -28 6 -50 11 -22 4 -49 9 -60 12 -11 2 -42 8 -70
13 -27 6 -61 12 -75 15 -22 5 -237 40 -300 50 -62 9 -179 25 -225 30 -46 5
-73 8 -172 19 -80 10 -193 19 -378 31 -55 3 -125 9 -155 11 -60 6 -987 14
-992 9z"/>
</g>
</svg>
