<?xml version="1.0" encoding="UTF-8"?>
<svg version="1.0" viewBox="0 0 1909.5 1842.8" xmlns="http://www.w3.org/2000/svg">
 <defs>
  <filter id="c" x="-.27815" y="-.32427" width="1.5563" height="1.6485" color-interpolation-filters="sRGB">
   <feGaussianBlur stdDeviation="5.8467041"/>
  </filter>
  <filter id="d" color-interpolation-filters="sRGB">
   <feGaussianBlur stdDeviation="0.70160449"/>
  </filter>
 </defs>
 <g transform="translate(988.16 777.63)">
  <g transform="translate(129.43 111.43)" fill-rule="evenodd">
   <path transform="matrix(24.321 0 0 25.833 -629.09 -394.64)" d="m44.394 16.529a25.224 21.637 0 1 1 -50.448 0 25.224 21.637 0 1 1 50.448 0z" fill="#acf" filter="url(#c)"/>
   <path transform="matrix(24.321 0 0 25.833 -629.09 -394.64)" d="m44.394 16.529a25.224 21.637 0 1 1 -50.448 0 25.224 21.637 0 1 1 50.448 0z" fill="#acf" filter="url(#d)"/>
   <path d="m-355.85-239.78 167.69-90.503 30.158 13.437c23.409 8.877 46.908 15.656 70.408 20.064 38.001 7.813 60.345 15.656 67.003 23.5l-144.19 77.066c-22.314-6.6274-52.472-13.893-90.473-21.737l-100.6-21.828z" fill="#f9f5ea"/>
   <path d="m-331.92-239.38 105.15 4.5876c19 3.4353 42.987 14.592 72.08 33.593l-10.093 222.9-23.378-9.9714-155.93-50.344-8.4206-200.76h20.584z" fill="#e8e1c5"/>
   <path d="m-154.68-201.2 134.1-72.08v211.25c-14.501 11.187-31.252 22.345-50.252 33.502-17.936 11.157-49.158 27.908-93.938 50.222l10.093-222.9z" fill="#a79e81"/>
   <path d="m-243.49-83.851c20.064-5.5937 34.079-1.672 41.892 11.735 7.8434 14.501-0.57762 25.658-25.172 33.502-23.5 7.8434-36.329 3.3137-38.579-13.437-1.064-16.72 6.1714-27.3 21.858-31.799z" fill="#c1aa76"/>
   <path d="m-114.4 217.88-514.69-150.91 491.16-201.07 452.57 179.33-429.04 172.65z" fill="#ccc8ab"/>
   <path d="m297.89 50.216-457.65-122.33-440.81 167.57-28.52-28.489 464.31-172.56 479.42 127.29c7.8434 30.158 7.8434 47.03 0 50.344-4.4081 3.3441-8.2994 0.48641-11.643-8.421l-5.1073-13.407z" fill="#f5f5f5"/>
   <path d="m-85.918-171.04 185.96-40.251 25.172 20.186c21.28 15.565 42.531 28.972 63.659 40.159 33.623 16.842 52.624 29.671 57.001 38.579l-160.91 35.258c-18.996-12.343-45.232-27.418-78.734-45.358l-92.145-48.58z" fill="#f9f5ea"/>
   <path d="m-65.226-170.1 101.64 39.346c16.72 8.9074 37.393 26.236 61.987 51.894l-72.08 211.25-18.423-16.75-137.38-90.474 42.737-196.21 21.519 0.93563z" fill="#e8e1c5"/>
   <path d="m245.88-112.37-56.88 204.51-162.68 40.25 72.081-211.26 147.48-33.5z" fill="#a79e81"/>
   <path d="m-20.587 10.057c21.25 0 33.593 7.8434 36.906 23.409 3.3441 14.501-7.813 22.314-33.471 23.5-23.53 1.094-34.079-6.172-31.951-21.828 3.344-16.751 12.829-25.081 28.516-25.081z" fill="#c1aa76"/>
   <path d="m-552.02-67.13 150.94-115.64c32.407 10.093 67.581 15.656 105.58 16.72 36.937 1.216 59.737 5.1073 68.736 11.765l-130.72 100.6c-23.53-3.3441-54.296-5.5937-92.297-6.6578l-102.24-6.7794z" fill="#f9f5ea"/>
   <path d="m-541.93-78.865 117.35-3.3441c19 1.064 44.628 8.4514 77.066 21.737l25.172 221.35-23.409-6.749-162.67-23.409-41.746-199.82 8.2445-9.7622z" fill="#e8e1c5"/>
   <path d="m-347.52-60.351 120.75-93.938 35.174 209.61c-13.437 13.407-28.516 26.844-45.267 40.129-15.656 14.592-44.051 36.329-85.487 65.422l-25.172-221.23z" fill="#a79e81"/>
   <path d="m-288.93-24.568 157.65-87.799 28.485 13.407c24.716 8.9074 48.702 15.687 72.232 20.095 36.785 7.813 59.129 15.656 66.973 23.5l-145.82 77.068c-22.345-6.6578-51.894-13.893-88.831-21.737l-90.68-24.531z" fill="#f9f5ea"/>
   <path d="m-275.23-23.593 103.83 6.837c19 3.3137 43.564 14.471 73.722 33.471l-11.735 223.02-21.737-10.093-157.6-50.344-0.90126-207.4 14.42 4.5063z" fill="#e8e1c5"/>
   <path d="m-13.838 189.39-95.58 50.344 11.735-223.02 134.1-72.08v211.25l-50.252 33.502z" fill="#a79e81"/>
   <path d="m197.33 313.36-278.26 127.41-430.84-100.56-117.32-273.24 553.14 129.08 402.36-174.35-129.08 291.66z" fill="#dbdbdb"/>
   <path d="m-59.196 234.63 373.84-162.59-117.31 241.32-278.26 127.41 21.734-206.14z" fill="#b2b2b2"/>
   <path d="m326.41 21.7-16.75 57.002-368.86 155.93-564.9-122.3-4.99-45.363 581.66 122.42 373.84-167.69z" fill="#f5f5f5"/>
   <path d="m-468.18 336.86-26.215-196.79 322.99 69.382-122.45 154.25-174.32-26.844z" fill="#e4e4e4"/>
   <path d="m287.8 100.56-83.73 201.16-285 139.05c84.907-78.25 149.75-135.7 194.41-172.64 44.75-36.82 102.85-92.75 174.32-167.57z" fill="#949494"/>
   <path d="m-205.03-98.96c-51.286-64.814-82.66-106.16-93.817-124.1l-83.845-179.3c29.093 44.659 62.595 83.845 100.6 117.32 36.937 33.502 62.595 95.61 77.066 186.08z" fill="#bdbf02"/>
   <path d="m-215-368.86c6.6578 78.251 9.9714 126.8 9.9714 145.8v124.1c-22.314-60.315-33.471-98.316-33.471-114l23.5-155.89z" fill="#586436"/>
   <path d="m-372.57-385.61 90.473 100.57c22.314 25.658 39.065 53.688 50.222 83.845v11.765l-90.473-78.859c-6.6578-6.6578-17.328-28.485-31.83-65.301-6.6578-17.936-12.829-35.265-18.392-52.016z" fill="#90a701"/>
  </g>
 </g>
</svg>
