<?xml version="1.0" encoding="UTF-8"?>
<svg viewBox="0 0 977.22565 504.75369" xmlns="http://www.w3.org/2000/svg">
 <g transform="translate(-362 -245.65)">
  <path d="m431.17 578c-11.06 55.54-31.772 165.12 24.438 164 277.98 17.756 530.07 3.9597 778.24-10 50.228-9.0648 19.898-106.25 18.798-160l-821.48 6z" fill="#daa507"/>
  <path d="m422.46 499.2c-25.431 9.4389-46.304 99.169 4.3398 117.12 274.98 29.097 553.01-16.46 813.43-29.196 63.396 13.378 42.963-117.56-8.6991-135.37-273.63-11.401-542.49 10.132-809.07 47.445z" fill="#803300"/>
  <path d="m443.21 475.11c-23.993 5.9224-51.685 108.22-3.9057 119.49 197.71 15.531-67.967-57.164 775.42-64.319 59.81 8.394 40.533-73.765-8.207-84.936-258.16-7.1537-511.81 6.3573-763.3 29.769z" fill="#520"/>
  <path d="m418 464 748-12c-160.89 63.641-254.48 10.073-510 216-188.48-218.73-172.56-147.95-238-204z" fill="#fd5"/>
  <path d="m424 440 748-12c-160.89 63.641-254.48 10.073-510 216-188.48-218.73-172.56-147.95-238-204z" fill="#fc0"/>
  <path d="m505.48 400.69 672.2-2.6898c144.64 58.078 245.7 103.9 62.97 69.934 75.848 110.82-126.76 8.3708-113.35-21.518 74.883 116.47-4.5491 88.425-55.099 37.657-8.7625 73.091-71.916 16.076-119.64-4.0346l56.673-24.208c-38.281 168.75-136.35 27.984-151.13-13.449 57.537 80.555-41.051 137.43-75.564-5.3795 68.577 66.586-39.779 136.79-102.33 90.107l77.138-59.175c-155.4 198.56-193.16 10.894-190.48-13.449l37.782 30.932c-27.652 99.795-115.05-47.378-130.66-84.727h31.485z" fill="#4a0"/>
  <path d="m501.64 458.62 632.9-50.524c138.18 14.738 234.9 27.326 61.677 25.911 75.195 42.816-119.08 12.961-107.47-1.0737 74.479 45.355-1.2742 38.941-50.603 20.486-5.7633 32.556-67.174 12.299-112.8 7.022l52.543-14.73c-30.303 76.49-127.44 22.228-142.77 5.2231 56.923 30.947-33.978 63.015-71.339 3.1988 66.843 24.038-32.803 62.644-93.29 46.854l70.624-31.499c-139.57 98.103-181.52 18.937-179.83 8.1125l36.631 10.732c-22.642 45.602-109.95-12.239-125.92-27.4l29.648-2.3115z" fill="#338000"/>
  <path d="m932 394c-195.3 11.624-390.34 23.877-570 72 1.1826 56.54 7.6169 71.065 14 86 163.3-69.369 369.46-86.366 580-98-0.2947-13.579 6.6639-21.113-24-60z" fill="#eb3f0b"/>
  <path d="m923.57 404c-235.35 3.181-395.48 37.584-555.57 72 141.22-10.977 375.08-47.586 340.78-10 69.026-9.2156 139.81-17.294 225.12-16 9.8728-32.525-5.4898-32.467-10.327-46z" fill="#d40000"/>
  <path d="m427.04 447.59c291.22-5.089 567.34-12.87 807.18-27.117 69.215-227.64-854.43-247.57-807.18 27.117z" fill="#daa507"/>
  <path d="m428 658c0.0249 27.185-8.9057 59.743 16 72 230.49 23.486 478.2 3.001 694 2-826.08 9.136-610.82-44.108-710-74z" fill="#d3bc5f"/>
  <path d="m477.77 352.39c-15.67-12.051-63.092 65.279-34 88 515.44-10.514 478.2-14.999 694-16-826.08 9.136-638.82-10.108-660-72z" fill="#d3bc5f"/>
 </g>
</svg>
