<?xml version="1.0" encoding="UTF-8"?>
<svg viewBox="0 0 48 48" xmlns="http://www.w3.org/2000/svg">
 <defs>
  <linearGradient id="a" x1="257.19" x2="279.78" y1="769.11" y2="666.58" gradientTransform="matrix(-.0021149 .31352 -.34044 -.0022964 330.19 -67.811)" gradientUnits="userSpaceOnUse">
   <stop stop-color="#e9b96e" offset="0"/>
   <stop stop-color="#c17d11" offset="1"/>
  </linearGradient>
 </defs>
 <g transform="matrix(.32388 -.086785 .086785 .32388 -5.5615 13.105)" stroke-width="4">
  <path d="m96.884 112.58c0.02738-4.06-3.5314-7.3821-7.94-7.4118l-0.29795 0.00779 0.36019-53.397-17.149-0.11568-0.34466 51.094c-4.1047 1.2993-7.1446 5.5807-7.179 10.69-0.04159 6.1652 4.3026 11.199 9.6909 11.235 4.1346 0.02788 7.6833-2.895 9.1333-7.0419 1.4404 1.3699 3.4561 2.2278 5.6874 2.2429 4.4086 0.02974 8.0118-3.244 8.0392-7.304z" fill="#eeeeec" stroke="#888a85"/>
  <path d="m75.812 55.688-0.3125 47.094c-0.01248 1.729-1.1344 3.2544-2.7812 3.7812-2.2336 0.70699-4.3511 3.3562-4.375 6.9062-0.02882 4.2731 2.8143 7.1992 5.7188 7.2188 2.221 0.01498 4.3374-1.5863 5.3125-4.375 0.44502-1.2839 1.5113-2.2541 2.8314-2.5762s2.7134 0.04787 3.6998 0.98247c0.6993 0.66508 1.7549 1.1481 2.9688 1.1562 2.4087 0.01625 3.9884-1.6304 4-3.3438s-1.5516-3.3587-3.9688-3.375h-0.15625c-1.0824 0.0253-2.1289-0.38924-2.9004-1.1489s-1.202-1.7996-1.1934-2.8823l0.3125-49.375-9.1562-0.0625z" fill="none" stroke="#fff"/>
  <path d="m79.758 83.738c-3.1666 0.05003-5.9166-0.09874-6.7673-0.87998-13.736-12.615-21.435-40.302-21.564-59.411 0.49666-24.732 15.822-38.394 28.332-38.375 12.509-0.01884 27.835 13.643 28.332 38.375-0.1289 19.109-7.8278 46.796-21.564 59.411-0.85067 0.78124-3.6007 0.93001-6.7673 0.87998z" fill="url(#a)" stroke="#8f5902"/>
  <path d="m79.75-10.938c-9.5918-0.01445-23.848 11.357-24.312 34.469 0.12035 17.841 7.954 44.513 19.844 55.906 0.1374 0.06601 0.32998 0.14673 0.6875 0.1875 0.88323 0.10071 2.2273 0.14857 3.7188 0.125h0.125c1.4912 0.02356 2.8566-0.02379 3.75-0.125 0.34978-0.03962 0.54144-0.11833 0.6875-0.1875 11.89-11.396 19.723-38.191 19.844-56.031-0.46406-23.108-14.752-34.358-24.344-34.344z" fill="none" opacity=".5" stroke="#fff"/>
 </g>
</svg>
